HIERARCHY
ROOT Hips
{
	OFFSET -0.001795 -0.223333 0.028219
	CHANNELS 6 Xposition Yposition Zposition Zrotation Yrotation Xrotation 
	JOINT LeftUpLeg
	{
		OFFSET 0.069520 -0.091406 -0.006815
		CHANNELS 3 Zrotation Yrotation Xrotation
		JOINT LeftLeg
		{
			OFFSET 0.034277 -0.375199 -0.004496
			CHANNELS 3 Zrotation Yrotation Xrotation
			JOINT LeftFoot
			{
				OFFSET -0.013596 -0.397961 -0.043693
				CHANNELS 3 Zrotation Yrotation Xrotation
				JOINT LeftToe
				{
					OFFSET 0.026358 -0.055791 0.119288
					CHANNELS 3 Zrotation Yrotation Xrotation
					End Site
					{
						OFFSET 0.000000 0.000000 0.000000
					}
				}
			}
		}
	}
	JOINT RightUpLeg
	{
		OFFSET -0.067670 -0.090522 -0.004320
		CHANNELS 3 Zrotation Yrotation Xrotation
		JOINT RightLeg
		{
			OFFSET -0.038290 -0.382569 -0.008850
			CHANNELS 3 Zrotation Yrotation Xrotation
			JOINT RightFoot
			{
				OFFSET 0.015774 -0.398415 -0.042312
				CHANNELS 3 Zrotation Yrotation Xrotation
				JOINT RightToe
				{
					OFFSET -0.025372 -0.048144 0.123348
					CHANNELS 3 Zrotation Yrotation Xrotation
					End Site
					{
						OFFSET 0.000000 0.000000 0.000000
					}
				}
			}
		}
	}
	JOINT Spine
	{
		OFFSET -0.002533 0.108963 -0.026696
		CHANNELS 3 Zrotation Yrotation Xrotation
		JOINT Spine1
		{
			OFFSET 0.005487 0.135180 0.001092
			CHANNELS 3 Zrotation Yrotation Xrotation
			JOINT Spine2
			{
				OFFSET 0.001457 0.052922 0.025425
				CHANNELS 3 Zrotation Yrotation Xrotation
				JOINT Neck
				{
					OFFSET -0.002778 0.213870 -0.042857
					CHANNELS 3 Zrotation Yrotation Xrotation
					JOINT Head
					{
						OFFSET 0.005152 0.064970 0.051349
						CHANNELS 3 Zrotation Yrotation Xrotation
						End Site
						{
							OFFSET 0.000000 0.000000 0.000000
						}
					}
				}
				JOINT LeftShoulder
				{
					OFFSET 0.078845 0.121749 -0.034090
					CHANNELS 3 Zrotation Yrotation Xrotation
					JOINT LeftArm
					{
						OFFSET 0.090977 0.030469 -0.008868
						CHANNELS 3 Zrotation Yrotation Xrotation
						JOINT LeftForeArm
						{
							OFFSET 0.259612 -0.012772 -0.027456
							CHANNELS 3 Zrotation Yrotation Xrotation
							JOINT LeftHand
							{
								OFFSET 0.249234 0.008986 -0.001171
								CHANNELS 3 Zrotation Yrotation Xrotation
								End Site
								{
									OFFSET 0.000000 0.000000 0.000000
								}
							}
						}
					}
				}
				JOINT RightShoulder
				{
					OFFSET -0.081759 0.118833 -0.038615
					CHANNELS 3 Zrotation Yrotation Xrotation
					JOINT RightArm
					{
						OFFSET -0.096012 0.032551 -0.009143
						CHANNELS 3 Zrotation Yrotation Xrotation
						JOINT RightForeArm
						{
							OFFSET -0.253742 -0.013329 -0.021401
							CHANNELS 3 Zrotation Yrotation Xrotation
							JOINT RightHand
							{
								OFFSET -0.255298 0.007772 -0.005559
								CHANNELS 3 Zrotation Yrotation Xrotation
								End Site
								{
									OFFSET 0.000000 0.000000 0.000000
								}
							}
						}
					}
				}
			}
		}
	}
}
MOTION
Frames: 7
Frame Time: 0.050000
0.000000 0.964362 0.000000 -1.639335 1.841586 6.155649 4.662143 -0.266357 -2.491890 -3.112660 0.367953 -7.988585 6.563441 15.762300 16.887345 0.000000 0.000000 0.000000 0.284805 0.437261 -4.312435 0.102239 -0.118238 -2.778535 -4.018442 -12.283491 11.623112 0.000000 0.000000 0.000000 4.431872 0.243771 -4.790700 -3.002902 1.392986 -14.402820 -3.356444 2.768995 18.024700 8.043593 -2.636497 -22.536266 0.000000 0.000000 0.000000 -6.761885 -8.951128 2.822810 -24.391374 -11.396968 -1.485572 17.845471 -2.100494 -0.257091 0.000000 0.000000 0.000000 12.989529 -2.820485 -1.559927 33.277087 11.805400 -1.533219 -19.629168 9.005564 -0.525481 0.000000 0.000000 0.000000 
0.000113 0.962757 0.002041 -2.224813 1.242657 6.979060 5.211118 -0.306968 -3.193503 -2.669353 0.358658 -7.964010 6.838069 16.084023 16.913964 0.000000 0.000000 0.000000 0.647337 0.510515 -5.020700 0.002959 -0.106625 -2.688403 -4.581798 -13.449769 11.930449 0.000000 0.000000 0.000000 4.865243 0.284760 -5.334745 -2.994612 1.368640 -14.618528 -3.307574 4.316171 17.393606 8.667519 -2.549858 -24.117381 0.000000 0.000000 0.000000 -6.804849 -9.143303 2.761141 -26.578034 -12.523480 -1.292438 16.982647 -2.489943 -0.315414 0.000000 0.000000 0.000000 14.959325 -4.673762 -2.420120 35.692659 11.872318 -1.581147 -21.773138 11.184155 -0.838565 0.000000 0.000000 0.000000 
0.000261 0.961802 0.003863 -2.388383 1.134813 6.770854 5.698752 -0.284841 -2.686778 -3.282242 0.378939 -7.497997 7.724417 17.335024 17.374444 0.000000 0.000000 0.000000 0.675508 0.467236 -4.609191 0.019499 -0.119279 -2.971966 -3.705323 -11.781203 11.636990 0.000000 0.000000 0.000000 5.415046 0.270241 -5.028588 -3.247570 1.437199 -16.192764 -3.612207 5.126610 19.023105 10.352753 -3.281904 -25.138351 0.000000 0.000000 0.000000 -6.694648 -10.378259 3.205852 -29.040799 -11.983196 -1.543970 17.648205 -3.174674 -0.431693 0.000000 0.000000 0.000000 16.363654 -4.044648 -1.983679 37.039598 11.628638 -1.834196 -22.138803 11.532587 -0.852941 0.000000 0.000000 0.000000 
0.000317 0.962636 0.005757 -2.808505 1.489023 7.097778 6.370624 -0.327205 -3.503281 -3.795337 0.394704 -6.809923 7.989775 17.714127 17.003551 0.000000 0.000000 0.000000 1.228542 0.538796 -5.233282 0.363495 -0.131488 -2.555218 -4.284825 -12.921698 12.261772 0.000000 0.000000 0.000000 5.214760 0.349985 -6.072938 -3.070173 1.393438 -15.790105 -3.387724 4.783115 18.941004 9.798268 -2.871758 -25.787775 0.000000 0.000000 0.000000 -7.879389 -10.644926 3.282401 -31.578279 -11.745246 -1.667842 18.533996 -3.811579 -0.529513 0.000000 0.000000 0.000000 17.890168 -3.977473 -2.049710 39.607178 11.326137 -1.938198 -23.372765 12.507401 -1.055114 0.000000 0.000000 0.000000 
0.000230 0.962900 0.007685 -2.819745 1.458542 7.009451 6.636558 -0.326332 -3.516139 -4.198780 0.415025 -6.228088 7.637995 17.222374 16.993821 0.000000 0.000000 0.000000 1.149132 0.540022 -5.248736 0.223829 -0.105321 -2.172766 -4.266825 -12.890684 12.261215 0.000000 0.000000 0.000000 4.813868 0.326359 -5.861314 -2.570722 1.238392 -16.078622 -3.506417 4.973825 18.620442 10.258941 -3.135478 -25.525414 0.000000 0.000000 0.000000 -9.084814 -11.338821 3.494410 -33.201279 -11.126832 -1.825669 18.433901 -4.574354 -0.625145 0.000000 0.000000 0.000000 19.337169 -4.007600 -2.090831 41.713772 10.742411 -2.155080 -23.455404 14.120783 -1.289412 0.000000 0.000000 0.000000 
0.000035 0.962739 0.009612 -2.924632 1.932182 7.151551 6.797314 -0.355641 -4.152651 -4.387753 0.424054 -5.164768 7.612415 17.179464 16.218119 0.000000 0.000000 0.000000 1.015832 0.578226 -5.596696 0.495683 -0.113720 -1.733240 -4.706198 -13.621487 12.045635 0.000000 0.000000 0.000000 4.503046 0.340570 -6.185278 -2.403173 1.195859 -15.780980 -3.373860 4.182364 18.532944 10.242217 -2.991784 -26.677922 0.000000 0.000000 0.000000 -10.167455 -11.363685 3.544302 -35.640415 -11.208996 -1.909095 18.149014 -4.886523 -0.618969 0.000000 0.000000 0.000000 20.122783 -3.968447 -2.233216 44.926929 11.104477 -2.018660 -23.585739 14.638506 -1.378550 0.000000 0.000000 0.000000 
-0.000232 0.962433 0.011436 -3.005690 2.016047 7.021753 6.987303 -0.357896 -4.264512 -4.681205 0.443319 -4.727421 7.757906 17.393249 16.232386 0.000000 0.000000 0.000000 1.291177 0.587076 -5.641447 0.404347 -0.098687 -1.546824 -4.870249 -13.921873 12.090217 0.000000 0.000000 0.000000 4.243047 0.315173 -5.904017 -2.026522 1.081542 -15.744297 -3.394447 4.033157 18.257874 10.266831 -3.065160 -26.351612 0.000000 0.000000 0.000000 -11.372667 -11.511055 3.581475 -37.602712 -10.712224 -2.094858 17.229970 -5.716261 -0.663021 0.000000 0.000000 0.000000 21.284807 -3.788881 -2.216496 47.636626 10.297012 -2.317754 -23.877949 15.831946 -1.575832 0.000000 0.000000 0.000000 
